# xmcd
#
# Track frame offsets:
#  150
#  22529
#  39413
#  58775
#  74560
#  93174
#  106100
#  126910
#  142523
#  160041
#  191594
#  206146
#  226108
#
# Disc length: 3223 seconds
#
# Revision: 0
# Processed by: cddbd v1.5.1PL0 Copyright (c) Steve Scherf et al.
# Submitted via: AltoMP3_Maker 3.0
#
DISCID=9e0c950d
DTITLE=Beck - Guero
DYEAR=1900
DGENRE=
TTITLE0=E-Pro
TTITLE1=Que Onda Guero
TTITLE2=Girl
TTITLE3=Missing
TTITLE4=Black Tambourine
TTITLE5=Earthquake Weather
TTITLE6=Hell Yes
TTITLE7=Broken Drum
TTITLE8=Scarecrow
TTITLE9=Go It Alone
TTITLE10=Farewell Ride
TTITLE11=Rental Ride
TTITLE12=Emergency Exit
EXTD=
EXTT0=
EXTT1=
EXTT2=
EXTT3=
EXTT4=
EXTT5=
EXTT6=
EXTT7=
EXTT8=
EXTT9=
EXTT10=
EXTT11=
EXTT12=
PLAYORDER=
